<?xml version="1.0" encoding="UTF-8"?>
<svg version="1.1" xmlns="http://www.w3.org/2000/svg" width="192" height="192">
<path d="M0 0 C63.36 0 126.72 0 192 0 C192 63.36 192 126.72 192 192 C128.64 192 65.28 192 0 192 C0 128.64 0 65.28 0 0 Z " fill="#FEFEFE" transform="translate(0,0)"/>
<path d="M0 0 C5.28 0 10.56 0 16 0 C16.0093457 2.00344482 16.01869141 4.00688965 16.02832031 6.07104492 C16.06211606 12.69691134 16.1176792 19.32246714 16.18390274 25.94808483 C16.22338054 29.96451112 16.2555673 33.98071808 16.27099609 37.99731445 C16.28616106 41.87497327 16.32060269 45.75202911 16.36830902 49.62941933 C16.38312467 51.10730048 16.39104113 52.58526771 16.39188385 54.06322289 C16.39425493 56.13679348 16.42134049 58.20869956 16.45410156 60.28198242 C16.46298401 61.46112717 16.47186646 62.64027191 16.48101807 63.85514832 C17.10783034 67.65341468 18.25730963 69.33470664 21 72 C24.45704496 72.83345815 24.45704496 72.83345815 28 72 C31.23419842 69.44396163 32.80837183 67.94275313 33.63923645 63.85514832 C33.64589828 62.67600357 33.65256012 61.49685883 33.65942383 60.28198242 C33.67514938 59.30065338 33.67514938 59.30065338 33.69119263 58.29949951 C33.71984599 56.15100101 33.71366378 54.00412332 33.70703125 51.85546875 C33.72015242 50.36043793 33.73545795 48.86542482 33.75285339 47.37043762 C33.79266839 43.44620392 33.80289147 39.52243431 33.80688477 35.59802246 C33.81622297 31.58929395 33.8536407 27.58083738 33.88867188 23.57226562 C33.95321224 15.71479231 33.98388451 7.85772201 34 0 C39.28 0 44.56 0 50 0 C50.06799509 8.58028355 50.12294181 17.16035478 50.15543652 25.74083614 C50.17103868 29.72584547 50.19217616 33.71065961 50.22631836 37.69555664 C50.25910783 41.54702718 50.27689392 45.39831092 50.28463173 49.24991035 C50.29014033 50.71340433 50.30089662 52.17688902 50.31719017 53.64030266 C50.4274046 63.95714548 50.32802594 73.55628522 42.84375 81.42578125 C36.33789184 86.98057116 29.69560005 88.92004747 21.18359375 88.5390625 C14.88228437 87.47209232 10.26580593 84.64265515 6.12109375 79.80859375 C1.72748876 73.55167677 -0.25609928 67.86630874 -0.22705078 60.16845703 C-0.22734283 59.51409164 -0.22763489 58.85972626 -0.22793579 58.18553162 C-0.22655288 56.04281924 -0.21104147 53.90046343 -0.1953125 51.7578125 C-0.19157866 50.2642333 -0.18873344 48.77065163 -0.18673706 47.27706909 C-0.17912978 43.36109562 -0.15950653 39.44527236 -0.1373291 35.52935791 C-0.11680783 31.52740511 -0.10772195 27.52542784 -0.09765625 23.5234375 C-0.07625763 15.68221532 -0.04109945 7.8411437 0 0 Z " fill="#080808" transform="translate(72,52)"/>
</svg>
